PathFileType	4	(X/Y/Z)	Shrugging.trc																																																																									
DataRate	CameraRate	NumFrames	NumMarkers	Units	OrigDataRate	OrigDataStartFrame	OrigNumFrames																																																																					
100	100	7	25	mm	100	255	2047																																																																					
Frame#	Time	AA			AI			Ant_Sh			CV7			GH			LAH			Lat_Sh			LCAJ			LPH			Post_Sh			RAH			RCAJ			RHLE			RHME			RPH			RUA			SJN			SXS			TS			TV8			centelbow			centpxt8			centijc7			centLPHRPH			ScapulaThoracicContactPt		
		X1	Y1	Z1	X2	Y2	Z2	X3	Y3	Z3	X4	Y4	Z4	X5	Y5	Z5	X6	Y6	Z6	X7	Y7	Z7	X8	Y8	Z8	X9	Y9	Z9	X10	Y10	Z10	X11	Y11	Z11	X12	Y12	Z12	X13	Y13	Z13	X14	Y14	Z14	X15	Y15	Z15	X16	Y16	Z16	X17	Y17	Z17	X18	Y18	Z18	X19	Y19	Z19	X20	Y20	Z20	X21	Y21	Z21	X22	Y22	Z22	X23	Y23	Z23	X24	Y24	Z24	X25	Y25	Z25
																																																																												
256	2.55	-61.51243973	1518.960205	1083.956787	-114.1948013	1355.289917	1001.779602	48.96194458	1485.012573	1082.890991	-70.98549652	1596.075684	875.25177	-6.806291103	1484.000122	1081.44043	153.6727905	1772.219238	844.2211304	-7.933665752	1497.835571	1115.127319	0.987631321	1561.764038	695.3111572	-55.42996216	1731.332642	818.2960815	-89.13088226	1482.505493	1079.299194	143.5926208	1772.345337	938.4075317	-6.269864082	1552.15564	1057.014404	8.857634544	1202.336792	1173.248535	-15.31665516	1162.067993	1059.822388	-58.63009644	1732.830322	934.4620361	-80.20713806	1329.641968	1125.84021	92.69174194	1510.982422	884.1165161	151.3629913	1338.801147	885.8444214	-117.3731461	1494.475342	967.2406616	-80.78341675	1306.848755	870.2846069	-3.229510307	1182.202393	1116.535461	35.28978729	1322.824951	878.0645142	10.85312271	1553.529053	879.6841431	-57.0300293	1732.081482	876.3790588	-97.69346237	1456.241821	1017.659017
257	2.56	-61.64256287	1518.877075	1084.017456	-114.2607574	1355.129517	1001.816101	48.88242722	1484.959229	1082.87439	-71.10443878	1596.03479	875.241333	-6.931379318	1483.890381	1081.430786	153.5221558	1772.246338	844.3162231	-8.071238518	1497.819702	1115.186646	0.867751598	1561.595947	695.2751465	-55.5096283	1731.294067	818.239624	-89.17160034	1482.315552	1079.303467	143.3708344	1772.270996	938.5088501	-6.382283688	1552.168945	1057.067505	9.268246651	1202.289673	1173.243896	-15.39164257	1161.927368	1060.07019	-58.81927872	1732.720947	934.3991089	-80.02775574	1329.621826	1126.379028	92.59941101	1510.93335	884.1560669	151.2694092	1338.73291	885.8876953	-117.5150604	1494.37793	967.171814	-80.85830688	1306.818726	870.3806763	-3.06169796	1182.108521	1116.657043	35.20555115	1322.775818	878.1341858	10.74748611	1553.48407	879.6987	-57.16445351	1732.007507	876.3193665	-97.80612691	1456.128174	1017.668457
258	2.57	-61.75196838	1518.854126	1084.022827	-114.4165955	1354.998047	1001.838135	48.70239258	1484.896729	1082.901123	-71.22206879	1596.008179	875.2561035	-6.997302055	1483.804688	1081.450684	153.4764252	1772.248169	844.4261475	-8.151092529	1497.812256	1115.212036	0.673188269	1561.438721	695.2252808	-55.57175064	1731.21521	818.1726074	-89.3015213	1482.19104	1079.307373	143.1814423	1772.233887	938.5897827	-6.552206516	1552.132568	1057.089722	9.534341812	1202.212891	1173.310303	-15.66156483	1161.825684	1060.305908	-58.98816299	1732.650146	934.3320923	-79.92529297	1329.552734	1126.810669	92.51005554	1510.904663	884.1842651	151.2267151	1338.630005	885.9524536	-117.6329727	1494.328247	967.1792603	-80.92475891	1306.729126	870.4185181	-3.063611507	1182.019287	1116.808105	35.15097809	1322.679565	878.1854858	10.64399338	1553.456421	879.7201843	-57.27995682	1731.932678	876.2523499	-97.93384552	1456.06014	1017.680074
259	2.58	-61.88671112	1518.796265	1084.02832	-114.5447617	1354.918213	1001.844849	48.54383469	1484.824219	1082.84436	-71.37813568	1595.969238	875.1798706	-7.154375076	1483.69751	1081.420532	153.3444824	1772.209473	844.5301514	-8.301963806	1497.743774	1115.196289	0.534773886	1561.288452	695.1983032	-55.68274307	1731.079102	818.1172485	-89.44905853	1482.032715	1079.31665	142.9665985	1772.235107	938.6425781	-6.724172115	1552.027588	1057.071777	9.788738251	1202.246826	1173.436035	-15.76269341	1161.652222	1060.551392	-59.12754059	1732.553589	934.2455444	-79.82702637	1329.509888	1127.20813	92.36938477	1510.849731	884.1954346	151.1112366	1338.596924	886.0460815	-117.7807083	1494.242188	967.1361084	-80.94335938	1306.681885	870.4790039	-2.986977577	1181.949524	1116.993713	35.0839386	1322.639404	878.2625427	10.49562454	1553.409485	879.6876526	-57.40514183	1731.816345	876.1813965	-98.07072703	1455.985555	1017.669759
260	2.59	-62.05409622	1518.788696	1084.045166	-114.7615891	1354.882202	1001.887146	48.38785553	1484.843994	1082.823975	-71.51915741	1595.921021	875.1706543	-7.34766531	1483.664551	1081.399536	152.943634	1772.244751	844.4794922	-8.509843826	1497.759277	1115.204224	0.27518183	1561.148804	695.1989746	-55.78956985	1731.026489	818.0953369	-89.64316559	1481.922974	1079.296387	142.8106232	1772.243042	938.7126465	-6.920581818	1552.019165	1057.057373	9.930397987	1202.282959	1173.621338	-15.85717964	1161.556274	1060.860596	-59.27189255	1732.437622	934.2034912	-79.84048462	1329.491455	1127.467896	92.29227448	1510.844727	884.2025757	150.9648895	1338.60022	886.1055298	-117.9300003	1494.194092	967.0604858	-81.11257935	1306.628296	870.5588989	-2.963390827	1181.919617	1117.240967	34.92615509	1322.614258	878.3322144	10.38655853	1553.382874	879.686615	-57.5307312	1731.732056	876.1494141	-98.24856186	1455.954997	1017.664266
261	2.6	-62.32717514	1518.83313	1084.007324	-114.9835815	1354.894653	1001.939819	48.16834259	1484.918457	1082.791382	-71.67854309	1595.912964	875.1009521	-7.556869984	1483.723511	1081.363647	148.5066833	1772.959351	841.3522949	-8.728256226	1497.90979	1115.211548	0.114456899	1561.095825	695.1713257	-55.88381577	1730.928711	817.9784546	-89.81565857	1481.959839	1079.256104	137.8969116	1772.373413	940.6090698	-7.088741302	1552.040039	1056.984131	9.891592026	1202.307251	1173.906372	-15.99852467	1161.509766	1061.136719	-59.48744202	1732.384277	934.1032104	-79.89746094	1329.514526	1127.592651	92.16415405	1510.844971	884.1835327	150.7649078	1338.585083	886.1490479	-118.123024	1494.213989	966.9580078	-81.19055939	1306.484497	870.6171875	-3.05346632	1181.908508	1117.521545	34.78717422	1322.53479	878.3831177	10.24280548	1553.378967	879.6422424	-57.68562889	1731.656494	876.0408325	-98.47792689	1455.980591	1017.63505
262	2.61	-62.48531723	1518.910522	1083.984131	-115.1782074	1354.89978	1001.992065	48.00687027	1485.056885	1082.781982	-71.83821869	1595.911743	875.12323	-7.80526495	1483.829346	1081.359497	148.3330536	1773.077393	841.4312134	-8.980495453	1498.010376	1115.229736	0.044824477	1561.083862	695.1953735	-56.0318718	1730.915039	817.9405518	-90.04936981	1482.020142	1079.263184	137.6924133	1772.398438	940.7033691	-7.35390377	1552.156372	1056.959106	9.876063347	1202.504517	1174.159912	-16.04624557	1161.583618	1061.372803	-59.71076202	1732.385986	934.059082	-80.03521729	1329.593872	1127.6604	92.05386353	1510.852173	884.1949463	150.6598358	1338.599854	886.2324829	-118.2597733	1494.236816	966.9542236	-81.31372833	1306.524536	870.7380371	-3.085091114	1182.044067	1117.766357	34.67305374	1322.562195	878.48526	10.10782242	1553.381958	879.6590881	-57.87131691	1731.650513	875.9998169	-98.64109929	1456.015706	1017.643473
